<?xml version="1.0" encoding="UTF-8" standalone="no"?>
<svg
   xmlns:dc="http://purl.org/dc/elements/1.1/"
   xmlns:cc="http://creativecommons.org/ns#"
   xmlns:rdf="http://www.w3.org/1999/02/22-rdf-syntax-ns#"
   xmlns:svg="http://www.w3.org/2000/svg"
   xmlns="http://www.w3.org/2000/svg"
   xmlns:sodipodi="http://sodipodi.sourceforge.net/DTD/sodipodi-0.dtd"
   xmlns:inkscape="http://www.inkscape.org/namespaces/inkscape"
   width="225"
   height="52"
   viewBox="0 0 225 52"
   version="1.1"
   id="svg21841"
   sodipodi:docname="logo-dark.svg"
   inkscape:version="0.92.4 (5da689c313, 2019-01-14)">
  <metadata
     id="metadata21847">
    <rdf:RDF>
      <cc:Work
         rdf:about="">
        <dc:format>image/svg+xml</dc:format>
        <dc:type
           rdf:resource="http://purl.org/dc/dcmitype/StillImage" />
      </cc:Work>
    </rdf:RDF>
  </metadata>
  <defs
     id="defs21845" />
  <sodipodi:namedview
     pagecolor="#ffffff"
     bordercolor="#666666"
     borderopacity="1"
     objecttolerance="10"
     gridtolerance="10"
     guidetolerance="10"
     inkscape:pageopacity="0"
     inkscape:pageshadow="2"
     inkscape:window-width="1160"
     inkscape:window-height="1312"
     id="namedview21843"
     showgrid="false"
     inkscape:zoom="1.9377778"
     inkscape:cx="101.33642"
     inkscape:cy="26"
     inkscape:window-x="-9"
     inkscape:window-y="0"
     inkscape:window-maximized="0"
     inkscape:current-layer="svg21841" />
  <g
     id="g422-0-4-1-7-4-4-3-7-1"
     transform="matrix(-0.17827424,0.01397932,0.0099204,0.23231305,42.274131,214.89775)"
     style="display:inline;opacity:1;fill:#000000">
    <path
       style="fill:#000000;stroke-width:0.26458332"
       d="m -95.351727,-828.75354 0.338346,-0.005 11.205394,8.431 11.205368,8.431 9.195706,-11.73979 16.818442,-47.63733 24.718161,-17.56368 -39.979374,1.52455 z"
       id="path154-19-4-2-0-7-72-9-1-3-8-7"
       inkscape:connector-curvature="0"
       sodipodi:nodetypes="ccccccccc"
       inkscape:transform-center-x="15.700925"
       inkscape:transform-center-y="-10.553656" />
    <path
       style="fill:#000000;stroke-width:0.26458332"
       d="m -95.013381,-828.75854 c 0,0 7.987717,-5.73852 11.54374,-8.426 l 9.614335,-11.73611 6.591442,15.61313 31.221639,49.94817 -33.950599,-7.41921 z"
       id="path154-19-4-5-5-6-6-8-4-4-3-6-3"
       inkscape:connector-curvature="0"
       sodipodi:nodetypes="ccccccc"
       inkscape:transform-center-x="15.700925"
       inkscape:transform-center-y="10.553656" />
  </g>
  <path
     sodipodi:nodetypes="cccccccccccccccccccccccccccccccccccccccc"
     inkscape:connector-curvature="0"
     id="path3863-7-1-4-3-3-7-1-9"
     d="m 29.100467,32.911125 -13.701597,6.078194 8.540713,-7.086184 c 0,0 8.682385,0.51462 12.432604,0.909986 L 38.753726,20.9538 35.304599,13.663304 22.295118,21.778182 34.9363,9.2950458 l 4.575929,3.9331912 2.662889,7.465173 -3.000159,11.429914 c -0.09578,0.123573 -0.216385,0.282749 -0.268004,0.353754 -0.133659,0.183875 -1.382192,1.559541 -1.543253,1.700375 0,0 -14.670107,4.675057 -14.50618,4.839201 z M 3.9297947,27.513318 C 7.0466837,25.177138 14.042632,20.955983 17.09705,18.528266 l 0.568122,-1.899909 1.257045,-1.973987 0.216289,2.556609 c 0,0 -1.976684,1.00838 0,0 L 32.867044,9.3199648 c 0,0 -13.196536,12.7844802 -15.585844,15.6422682 l 0.503312,3.147819 -2.845975,1.285148 -4.038184,-0.154556 -2.8461553,0.888223 -3.450697,0.123416 0.123314,-1.576842 z m 8.2013673,-2.472969 2.041975,-2.094583 -1.417933,0.660717 z m 7.948528,-0.320479 14.909741,-8.966403 2.13172,4.963712 -1.707019,10.245508 C 33.046008,30.850262 23.214451,29.7798 23.214451,29.7798 Z"
     style="display:inline;opacity:1;fill:#000000;stroke-width:0.08485737" />
  <path
     style="display:inline;opacity:1;fill:#000000;stroke-width:0.05393486"
     d="m 59.974857,21.312995 -10.126176,17.651282 0.0291,-4.276474 0.02526,-3.714193 4.678885,-10.305899 -6.675158,-13.3075182 6.591317,-0.118195 z"
     id="path154-19-4-2-0-7-6-8-1-2-7-9-6"
     inkscape:connector-curvature="0"
     sodipodi:nodetypes="cccccccc"
     inkscape:transform-center-x="4.3442144"
     inkscape:transform-center-y="-3.678912" />
  <path
     style="display:inline;opacity:1;fill:#000000;stroke-width:0.05393486"
     d="m 68.97507,21.99872 -11.379522,16.995246 0.01378,-4.213278 0.01269,-3.869611 5.381999,-10.092656 -5.118873,-13.6172332 6.333568,3.1736482 z"
     id="path154-19-4-2-0-7-6-5-3-1-4-2-2-3"
     inkscape:connector-curvature="0"
     sodipodi:nodetypes="cccccccc"
     inkscape:transform-center-x="3.7102493"
     inkscape:transform-center-y="-3.932567" />
  <g
     id="g422-0-4-1-84-6-0-8-4-4-7"
     transform="matrix(-0.17827424,0.01397932,0.0099204,0.23231305,72.526056,219.09249)"
     style="display:inline;opacity:1;fill:#000000">
    <path
       style="fill:#000000;stroke-width:0.26458332"
       d="m -82.419886,-833.13008 v 0 c 19.031117,-0.68499 18.331463,-1.44611 34.845022,-10.13694 7.959705,-15.4937 16.821704,-30.52971 25.704554,-45.57032 l -79.38866,40.13917 z"
       id="path154-19-4-2-0-7-7-2-9-5-5-2-5"
       inkscape:connector-curvature="0"
       sodipodi:nodetypes="cccccc"
       inkscape:transform-center-x="15.700925"
       inkscape:transform-center-y="-10.553656" />
    <path
       style="fill:#000000;stroke-width:0.26458332"
       d="m -82.419886,-833.13008 c 16.151371,-5.76731 20.639936,-6.01863 34.845022,-10.13694 l 29.550749,30.70883 z"
       id="path154-19-4-5-5-6-6-7-8-8-0-6-6-3"
       inkscape:connector-curvature="0"
       sodipodi:nodetypes="cccc"
       inkscape:transform-center-x="15.700925"
       inkscape:transform-center-y="10.553656" />
  </g>
  <path
     sodipodi:nodetypes="cccccc"
     inkscape:connector-curvature="0"
     id="path4993-7-8-0-2-3-5"
     d="m 63.118764,39.048711 22.757034,-1.796416 -6.92138,-12.858996 c -8.129471,3.866347 -3.16871,0.889311 -6.40401,2.855448 l 8.32627,7.259335 z"
     style="display:inline;opacity:1;fill:#000000;stroke-width:0.56126589" />
  <path
     style="display:inline;opacity:1;fill:#000000;stroke-width:0.04425001"
     d="m 113.11559,28.998178 c 0.13614,-0.27483 12.49367,-23.0782712 12.50087,-23.0679512 0.004,0.0055 2.61404,4.8141872 5.80064,10.6862422 3.18661,5.872042 5.82206,10.722898 5.85655,10.779682 l 0.0627,0.103233 -2.53416,-0.01177 -2.53415,-0.01177 -1.28311,-2.377606 c -1.10242,-2.04283 -1.29656,-2.377155 -1.37868,-2.374273 -0.0683,0.0021 -15.8254,6.118107 -16.49067,6.400439 -0.077,0.03264 -0.077,0.02922 0,-0.126168 z m 11.93745,-8.610923 c 1.99598,-0.807848 2.74322,-1.129504 2.73938,-1.179171 -0.006,-0.08306 -2.1675,-4.099902 -2.20596,-4.100258 -0.0149,0 -0.77492,1.404041 -1.68878,3.120389 -0.91388,1.716349 -1.69078,3.169617 -1.72647,3.229522 -0.0831,0.139403 -0.37953,0.249522 2.88183,-1.070482 z m 22.6215,8.610923 c 0.13615,-0.27483 12.49365,-23.0782712 12.50085,-23.0679512 0.004,0.0055 2.61405,4.8141872 5.80065,10.6862422 3.18661,5.872042 5.82205,10.722898 5.85654,10.779682 l 0.0627,0.103233 -2.53416,-0.01177 -2.53413,-0.01177 -1.2831,-2.377606 c -1.10244,-2.04283 -1.29656,-2.377155 -1.37869,-2.374273 -0.0683,0.0021 -15.8254,6.118107 -16.49066,6.400439 -0.077,0.03264 -0.077,0.02922 0,-0.126168 z m 11.93743,-8.610923 c 1.99598,-0.807848 2.74324,-1.129504 2.73939,-1.179171 -0.006,-0.08306 -2.1675,-4.099902 -2.20594,-4.100258 -0.0151,0 -0.77493,1.404041 -1.68881,3.120389 -0.91386,1.716349 -1.69077,3.169617 -1.72647,3.229522 -0.0831,0.139403 -0.3795,0.249522 2.88183,-1.070482 z m 34.14116,8.610923 c 0.13614,-0.27483 12.49366,-23.0782712 12.50086,-23.0679512 0.004,0.0055 2.61404,4.8141872 5.80065,10.6862422 3.18661,5.872042 5.82206,10.722898 5.85654,10.779682 l 0.0627,0.103233 -2.53415,-0.01177 -2.53415,-0.01177 -1.2831,-2.377606 c -1.10242,-2.04283 -1.29655,-2.377155 -1.3787,-2.374273 -0.0683,0.0021 -15.82539,6.118107 -16.49064,6.400439 -0.077,0.03264 -0.077,0.02922 0,-0.126168 z m 11.93742,-8.610923 c 1.996,-0.807848 2.74325,-1.129504 2.73941,-1.179171 -0.006,-0.08306 -2.16751,-4.099902 -2.20595,-4.100258 -0.0149,0 -0.77494,1.404041 -1.6888,3.120389 -0.91387,1.716349 -1.69078,3.169617 -1.72647,3.229522 -0.0831,0.139403 -0.37953,0.249522 2.88181,-1.070482 z m -20.2946,1.53315 -7.4942,-6.401233 -0.0109,5.989744 -0.0109,5.98975 -2.20528,5.104189 -2.20528,-5.104189 v -10.7706 c 0,-8.2323532 0.0118,-10.7627772 0.0503,-10.7374072 0.0276,0.01827 3.40063,2.889742 7.49553,6.3811392 4.09489,3.491363 7.46392,6.347946 7.48675,6.347946 0.0266,0 0.0415,-2.14674 0.0415,-5.966911 V 6.7858928 h 2.18402 2.18403 V 17.55379 c 0,5.922351 -0.004,10.767896 -0.0107,10.767882 -0.006,0 -3.3831,-2.880578 -7.50491,-6.401267 z M 93.388638,17.142293 V 6.7858928 h 2.26967 2.26967 v 3.8903282 c 0,2.36745 0.0156,3.88434 0.0397,3.875059 0.0219,-0.0084 1.96756,-1.75915 4.323892,-3.890594 l 4.2842,-3.8753612 3.20542,0.01177 3.20539,0.01177 -5.64258,5.0981612 c -3.10342,2.803995 -5.64368,5.109548 -5.64502,5.123448 -0.001,0.01382 2.62909,2.369811 5.84544,5.235354 l 5.8479,5.210058 -3.32018,0.01177 -3.3202,0.01177 -4.38896,-3.909641 c -2.413932,-2.1503 -4.399312,-3.909628 -4.411962,-3.909628 -0.0126,0 -0.023,1.759198 -0.023,3.909347 v 3.909368 l -2.26967,4.964273 -2.26966,-4.964273 z m 47.277672,2.171858 V 11.12965 l -7.10877,-2.1718922 v -2.171865 h 9.39985 9.39987 v 2.171865 l -7.1516,2.1718922 v 8.184501 8.184515 l -2.26968,4.964266 -2.26967,-4.964266 z"
     id="path154-02-4-9-3-8-5-5"
     inkscape:connector-curvature="0"
     sodipodi:nodetypes="ccsccccscsccsccscscccccccccsccsccccsccsccccccsccsccccsccccccscssscccscccccccscscccscscccsssccccccccccccccccc" />
  <flowRoot
     xml:space="preserve"
     id="flowRoot8088-0-26-3-0"
     style="font-style:normal;font-variant:normal;font-weight:normal;font-stretch:normal;font-size:189.49754333px;line-height:1.25;font-family:'Bebas Neue';-inkscape-font-specification:'Bebas Neue';letter-spacing:0px;word-spacing:0px;display:inline;opacity:1;fill:#000000;fill-opacity:1;stroke:none"
     transform="matrix(0.06327159,0,0,0.06755564,154.25656,-52.107202)"><flowRegion
       id="flowRegion8090-9-1-7-2"
       style="fill:#000000"><rect
         id="rect8092-9-8-4-0"
         width="3410.7449"
         height="942.34753"
         x="-969.74646"
         y="1296.2659"
         style="fill:#000000" /></flowRegion><flowPara
       id="flowPara8094-8-1-2-8"
       style="font-style:normal;font-variant:normal;font-weight:normal;font-stretch:normal;font-family:'Bebas Neue';-inkscape-font-specification:'Bebas Neue';fill:#000000">EQUIPOS DE PROTECCIÓN BLINDADA</flowPara></flowRoot></svg>
