<?xml version="1.0" encoding="UTF-8" standalone="no"?>
<svg
   xmlns:dc="http://purl.org/dc/elements/1.1/"
   xmlns:cc="http://creativecommons.org/ns#"
   xmlns:rdf="http://www.w3.org/1999/02/22-rdf-syntax-ns#"
   xmlns:svg="http://www.w3.org/2000/svg"
   xmlns="http://www.w3.org/2000/svg"
   xmlns:sodipodi="http://sodipodi.sourceforge.net/DTD/sodipodi-0.dtd"
   xmlns:inkscape="http://www.inkscape.org/namespaces/inkscape"
   width="225"
   height="52"
   viewBox="0 0 225 52"
   version="1.1"
   id="svg21841"
   sodipodi:docname="logo-dark.svg"
   inkscape:version="0.92.4 (5da689c313, 2019-01-14)">
  <metadata
     id="metadata21847">
    <rdf:RDF>
      <cc:Work
         rdf:about="">
        <dc:format>image/svg+xml</dc:format>
        <dc:type
           rdf:resource="http://purl.org/dc/dcmitype/StillImage" />
      </cc:Work>
    </rdf:RDF>
  </metadata>
  <defs
     id="defs21845" />
  <sodipodi:namedview
     pagecolor="#ffffff"
     bordercolor="#666666"
     borderopacity="1"
     objecttolerance="10"
     gridtolerance="10"
     guidetolerance="10"
     inkscape:pageopacity="0"
     inkscape:pageshadow="2"
     inkscape:window-width="1160"
     inkscape:window-height="1080"
     id="namedview21843"
     showgrid="false"
     inkscape:zoom="2.7404316"
     inkscape:cx="117.85134"
     inkscape:cy="58.128071"
     inkscape:window-x="-9"
     inkscape:window-y="-9"
     inkscape:window-maximized="1"
     inkscape:current-layer="svg21841" />
  <g
     id="g422-0-4-1-7-4-4-3-7-1"
     transform="matrix(-0.17827424,0.01397932,0.0099204,0.23231305,42.274131,214.89775)"
     style="display:inline;opacity:1;fill:#000000">
    <path
       style="fill:#000000;stroke-width:0.26458332"
       d="m -95.351727,-828.75354 0.338346,-0.005 11.205394,8.431 11.205368,8.431 9.195706,-11.73979 16.818442,-47.63733 24.718161,-17.56368 -39.979374,1.52455 z"
       id="path154-19-4-2-0-7-72-9-1-3-8-7"
       inkscape:connector-curvature="0"
       sodipodi:nodetypes="ccccccccc"
       inkscape:transform-center-x="15.700925"
       inkscape:transform-center-y="-10.553656" />
    <path
       style="fill:#000000;stroke-width:0.26458332"
       d="m -95.013381,-828.75854 c 0,0 7.987717,-5.73852 11.54374,-8.426 l 9.614335,-11.73611 6.591442,15.61313 31.221639,49.94817 -33.950599,-7.41921 z"
       id="path154-19-4-5-5-6-6-8-4-4-3-6-3"
       inkscape:connector-curvature="0"
       sodipodi:nodetypes="ccccccc"
       inkscape:transform-center-x="15.700925"
       inkscape:transform-center-y="10.553656" />
  </g>
  <path
     sodipodi:nodetypes="cccccccccccccccccccccccccccccccccccccccc"
     inkscape:connector-curvature="0"
     id="path3863-7-1-4-3-3-7-1-9"
     d="m 29.100467,32.911125 -13.701597,6.078194 8.540713,-7.086184 c 0,0 8.682385,0.51462 12.432604,0.909986 L 38.753726,20.9538 35.304599,13.663304 22.295118,21.778182 34.9363,9.2950458 l 4.575929,3.9331912 2.662889,7.465173 -3.000159,11.429914 c -0.09578,0.123573 -0.216385,0.282749 -0.268004,0.353754 -0.133659,0.183875 -1.382192,1.559541 -1.543253,1.700375 0,0 -14.670107,4.675057 -14.50618,4.839201 z M 3.9297947,27.513318 C 7.0466837,25.177138 14.042632,20.955983 17.09705,18.528266 l 0.568122,-1.899909 1.257045,-1.973987 0.216289,2.556609 c 0,0 -1.976684,1.00838 0,0 L 32.867044,9.3199648 c 0,0 -13.196536,12.7844802 -15.585844,15.6422682 l 0.503312,3.147819 -2.845975,1.285148 -4.038184,-0.154556 -2.8461553,0.888223 -3.450697,0.123416 0.123314,-1.576842 z m 8.2013673,-2.472969 2.041975,-2.094583 -1.417933,0.660717 z m 7.948528,-0.320479 14.909741,-8.966403 2.13172,4.963712 -1.707019,10.245508 C 33.046008,30.850262 23.214451,29.7798 23.214451,29.7798 Z"
     style="display:inline;opacity:1;fill:#000000;stroke-width:0.08485737" />
  <path
     style="display:inline;opacity:1;fill:#000000;stroke-width:0.05393486"
     d="m 59.974857,21.312995 -10.126176,17.651282 0.0291,-4.276474 0.02526,-3.714193 4.678885,-10.305899 -6.675158,-13.3075182 6.591317,-0.118195 z"
     id="path154-19-4-2-0-7-6-8-1-2-7-9-6"
     inkscape:connector-curvature="0"
     sodipodi:nodetypes="cccccccc"
     inkscape:transform-center-x="4.3442144"
     inkscape:transform-center-y="-3.678912" />
  <path
     style="display:inline;opacity:1;fill:#000000;stroke-width:0.05393486"
     d="m 68.97507,21.99872 -11.379522,16.995246 0.01378,-4.213278 0.01269,-3.869611 5.381999,-10.092656 -5.118873,-13.6172332 6.333568,3.1736482 z"
     id="path154-19-4-2-0-7-6-5-3-1-4-2-2-3"
     inkscape:connector-curvature="0"
     sodipodi:nodetypes="cccccccc"
     inkscape:transform-center-x="3.7102493"
     inkscape:transform-center-y="-3.932567" />
  <g
     id="g422-0-4-1-84-6-0-8-4-4-7"
     transform="matrix(-0.17827424,0.01397932,0.0099204,0.23231305,72.526056,219.09249)"
     style="display:inline;opacity:1;fill:#000000">
    <path
       style="fill:#000000;stroke-width:0.26458332"
       d="m -82.419886,-833.13008 v 0 c 19.031117,-0.68499 18.331463,-1.44611 34.845022,-10.13694 7.959705,-15.4937 16.821704,-30.52971 25.704554,-45.57032 l -79.38866,40.13917 z"
       id="path154-19-4-2-0-7-7-2-9-5-5-2-5"
       inkscape:connector-curvature="0"
       sodipodi:nodetypes="cccccc"
       inkscape:transform-center-x="15.700925"
       inkscape:transform-center-y="-10.553656" />
    <path
       style="fill:#000000;stroke-width:0.26458332"
       d="m -82.419886,-833.13008 c 16.151371,-5.76731 20.639936,-6.01863 34.845022,-10.13694 l 29.550749,30.70883 z"
       id="path154-19-4-5-5-6-6-7-8-8-0-6-6-3"
       inkscape:connector-curvature="0"
       sodipodi:nodetypes="cccc"
       inkscape:transform-center-x="15.700925"
       inkscape:transform-center-y="10.553656" />
  </g>
  <path
     sodipodi:nodetypes="cccccc"
     inkscape:connector-curvature="0"
     id="path4993-7-8-0-2-3-5"
     d="m 63.118764,39.048711 22.757034,-1.796416 -6.92138,-12.858996 c -8.129471,3.866347 -3.16871,0.889311 -6.40401,2.855448 l 8.32627,7.259335 z"
     style="display:inline;opacity:1;fill:#000000;stroke-width:0.56126589" />
  <path
     style="display:inline;opacity:1;fill:#000000;stroke-width:0.04450922"
     d="m 114.69077,36.431429 c 0.13694,-0.27644 12.56686,-23.213462 12.5741,-23.203082 0.004,0.0055 2.62935,4.842388 5.83462,10.748841 3.20528,5.90644 5.85616,10.785712 5.89086,10.842829 l 0.0631,0.103838 -2.549,-0.01184 -2.549,-0.01184 -1.29062,-2.391534 c -1.10888,-2.054797 -1.30416,-2.39108 -1.38676,-2.388181 -0.0687,0.0021 -15.9181,6.153946 -16.58727,6.437932 -0.0774,0.03283 -0.0774,0.02939 0,-0.126907 z m 12.00738,-8.661366 c 2.00767,-0.81258 2.75929,-1.13612 2.75543,-1.186078 -0.006,-0.08355 -2.1802,-4.123919 -2.21889,-4.124277 -0.015,0 -0.77946,1.412266 -1.69867,3.138668 -0.91923,1.726403 -1.70068,3.188184 -1.73658,3.24844 -0.0836,0.14022 -0.38176,0.250984 2.89871,-1.076753 z m 22.75401,8.661366 c 0.13695,-0.27644 12.56684,-23.213462 12.57408,-23.203082 0.004,0.0055 2.62937,4.842388 5.83463,10.748841 3.20528,5.90644 5.85616,10.785712 5.89085,10.842829 l 0.0631,0.103838 -2.54901,-0.01184 -2.54897,-0.01184 -1.29062,-2.391534 c -1.1089,-2.054797 -1.30415,-2.39108 -1.38677,-2.388181 -0.0687,0.0021 -15.9181,6.153946 -16.58726,6.437932 -0.0774,0.03283 -0.0774,0.02939 0,-0.126907 z m 12.00736,-8.661366 c 2.00767,-0.81258 2.75931,-1.13612 2.75544,-1.186078 -0.006,-0.08355 -2.1802,-4.123919 -2.21886,-4.124277 -0.0152,0 -0.77947,1.412266 -1.69871,3.138668 -0.91921,1.726403 -1.70067,3.188184 -1.73658,3.24844 -0.0836,0.14022 -0.38172,0.250984 2.89871,-1.076753 z m 34.34116,8.661366 c 0.13694,-0.27644 12.56685,-23.213462 12.57409,-23.203082 0.004,0.0055 2.62935,4.842388 5.83463,10.748841 3.20527,5.90644 5.85616,10.785712 5.89084,10.842829 l 0.0631,0.103838 -2.54899,-0.01184 -2.549,-0.01184 -1.29061,-2.391534 c -1.10888,-2.054797 -1.30415,-2.39108 -1.38678,-2.388181 -0.0687,0.0021 -15.91809,6.153946 -16.58724,6.437932 -0.0774,0.03283 -0.0774,0.02939 0,-0.126907 z m 12.00735,-8.661366 c 2.00769,-0.81258 2.75932,-1.13612 2.75545,-1.186078 -0.006,-0.08355 -2.1802,-4.123919 -2.21887,-4.124277 -0.015,0 -0.77948,1.412266 -1.69869,3.138668 -0.91922,1.726403 -1.70069,3.188184 -1.73658,3.24844 -0.0836,0.14022 -0.38176,0.250984 2.89869,-1.076753 z m -20.41349,1.542131 -7.5381,-6.438731 -0.011,6.024832 -0.011,6.024837 -2.21819,5.134089 -2.2182,-5.134089 V 24.089439 c 0,-8.280577 0.0119,-10.825824 0.0506,-10.800306 0.0278,0.01838 3.42055,2.90667 7.53944,6.418519 4.11888,3.511815 7.50764,6.385132 7.53061,6.385132 0.0267,0 0.0417,-2.159315 0.0417,-6.001865 v -6.001893 h 2.19681 2.19683 V 24.92 c 0,5.957044 -0.004,10.830974 -0.0108,10.83096 -0.006,0 -3.40292,-2.897453 -7.54888,-6.438766 z M 94.848262,24.506093 V 14.089026 h 2.282966 2.282965 v 3.913117 c 0,2.381318 0.01569,3.907094 0.03993,3.897759 0.02203,-0.0084 1.979087,-1.769455 4.349217,-3.913385 l 4.3093,-3.898063 3.2242,0.01184 3.22416,0.01184 -5.67563,5.128026 c -3.1216,2.82042 -5.67674,5.139479 -5.67809,5.153461 -10e-4,0.0139 2.64449,2.383693 5.87968,5.266022 l 5.88216,5.240578 -3.33963,0.01184 -3.33965,0.01184 -4.41467,-3.932543 c -2.42807,-2.162897 -4.425081,-3.932531 -4.437805,-3.932531 -0.01267,0 -0.02313,1.769503 -0.02313,3.932248 v 3.932269 l -2.282965,4.993353 -2.282956,-4.993353 z m 47.554618,2.18458 v -8.232445 l -7.15041,-2.184615 v -2.184587 h 9.45491 9.45493 v 2.184587 l -7.19349,2.184615 v 8.232445 8.232459 l -2.28297,4.993347 -2.28297,-4.993347 z"
     id="path154-02-4-9-3-8-5-5"
     inkscape:connector-curvature="0"
     sodipodi:nodetypes="ccsccccscsccsccscscccccccccsccsccccsccsccccccsccsccccsccccccscssscccscccccccscscccscscccsssccccccccccccccccc" />
</svg>
